# xmcd
#
# Track frame offsets:
#	150
#	6882
#	29982
#	31245
#	58420
#	77545
#	91537
#	120587
#	137815
#	160990
#	163065
#
# Disc length: 2589 seconds
#
# Revision: 14
# Processed by: cddbd v1.5.2PL0 Copyright (c) Steve Scherf et al.
# Submitted via: Jack! The Knife 20 Magnifico
#
DISCID=8a0a1b0b
DTITLE=Candlemass - Tales Of Creation
DYEAR=1986
DGENRE=Metal
TTITLE0=The Prophecy
TTITLE1=Dark Reflections
TTITLE2=Voices In The Wind
TTITLE3=Under The Oak
TTITLE4=Tears
TTITLE5=Into The Unfathomed Tower
TTITLE6=The Edge Of Heaven
TTITLE7=Somewhere In Nowhere
TTITLE8=Through The Infinitive Halls Of Death
TTITLE9=Dawn
TTITLE10=A Tale Of Creation
EXTD=Candlemass
EXTT0=Leif Edling
EXTT1=Leif Edling
EXTT2=Leif Edling
EXTT3=Leif Edling
EXTT4=Leif Edling
EXTT5=Leif Edling
EXTT6=Leif Edling
EXTT7=Leif Edling
EXTT8=Leif Edling
EXTT9=Leif Edling
EXTT10=Leif Edling
PLAYORDER=
